<svg width="301" height="99" viewBox="0 0 301 99" fill="none" xmlns="http://www.w3.org/2000/svg">
<path d="M59.0116 23.3426C61.3217 22.5982 63.7946 22.5162 66.149 23.1057C66.3914 23.1666 66.6144 23.2894 66.795 23.4623C66.9757 23.6353 67.1085 23.8525 67.1798 24.0923C67.2511 24.3321 67.259 24.5866 67.2025 24.8303C67.1457 25.074 67.0268 25.2987 66.8571 25.4824L60.1049 32.8072L61.125 37.5553L65.8711 38.5733L73.1959 31.8124C73.3798 31.6426 73.6048 31.5236 73.8483 31.467C74.0921 31.4104 74.3463 31.4182 74.5862 31.4895C74.8258 31.561 75.0431 31.6939 75.2159 31.8747C75.3891 32.0555 75.5123 32.2781 75.573 32.5208C75.8318 33.5574 75.962 34.6218 75.962 35.6903C75.9642 37.8481 75.4282 39.9721 74.4024 41.8704C73.3769 43.7687 71.8939 45.3812 70.0879 46.5618C68.2823 47.7427 66.2104 48.4548 64.0601 48.633C62.2836 48.7803 60.5003 48.5591 58.8196 47.9887C58.7216 48.1034 58.6194 48.2148 58.5122 48.322C58.487 48.3455 58.4618 48.3707 58.4348 48.3923L53.0505 53.0457L48.3925 58.4343C48.3708 58.4595 48.3456 58.4865 48.3222 58.5099C48.2147 58.6174 48.1029 58.72 47.9879 58.8183C48.641 60.7525 48.8312 62.8187 48.5348 64.849C48.1841 67.251 47.1676 69.5063 45.6004 71.3595C44.033 73.2127 41.9774 74.5893 39.6674 75.3336C37.3574 76.0783 34.8848 76.1603 32.5303 75.5711C32.2876 75.51 32.0647 75.3868 31.8839 75.214C31.7032 75.0411 31.5706 74.8242 31.4991 74.5843C31.4277 74.3447 31.42 74.0902 31.4766 73.8463C31.5332 73.6028 31.6522 73.3782 31.822 73.1943L38.5738 65.8695L37.554 61.1213L32.8078 60.1033L25.483 66.8641C25.2992 67.0337 25.0742 67.153 24.8305 67.2098C24.5868 67.2662 24.3326 67.2581 24.0928 67.1867C23.853 67.1154 23.6359 66.9826 23.4629 66.8019C23.29 66.6213 23.1671 66.3987 23.1063 66.1559C22.8476 65.1195 22.7168 64.055 22.717 62.9866C22.7148 60.8288 23.2508 58.7044 24.2764 56.8061C25.302 54.9078 26.785 53.2953 28.5909 52.1143C30.3967 50.9338 32.4685 50.2221 34.6187 50.0436C36.3951 49.8966 38.1784 50.1174 39.8591 50.6874C39.9567 50.5728 40.0593 50.4617 40.1668 50.3541C40.192 50.3307 40.2176 50.3055 40.2446 50.2839L45.6288 45.6297L50.2865 40.2422C50.3082 40.217 50.333 40.1901 50.3565 40.1666C50.4644 40.0591 50.5758 39.9565 50.6908 39.8582C50.0377 37.9244 49.8482 35.8579 50.1445 33.8275C50.4952 31.4259 51.5118 29.1706 53.0789 27.3173C54.6464 25.4642 56.7012 24.087 59.0116 23.3426Z" fill="#FF5D2E"/>
<path d="M108.52 39.8468C108.345 38.0759 107.591 36.7001 106.259 35.7194C104.927 34.7388 103.119 34.2485 100.836 34.2485C99.2849 34.2485 97.9748 34.468 96.9064 34.9071C95.838 35.3315 95.0184 35.9242 94.4476 36.6852C93.8914 37.4466 93.6135 38.3098 93.6135 39.276C93.584 40.0811 93.7523 40.7835 94.1182 41.3834C94.4988 41.9836 95.0184 42.5033 95.6772 42.9423C96.3356 43.3669 97.0966 43.7399 97.9602 44.0619C98.8238 44.3692 99.746 44.6326 100.726 44.8523L104.766 45.8182C106.727 46.2572 108.528 46.8429 110.167 47.5745C111.806 48.3064 113.226 49.2065 114.426 50.2749C115.626 51.3434 116.556 52.602 117.214 54.0509C117.887 55.4998 118.231 57.161 118.246 59.0345C118.231 61.7861 117.529 64.1717 116.138 66.1917C114.763 68.1969 112.772 69.7555 110.167 70.8679C107.576 71.9654 104.451 72.5145 100.792 72.5145C97.1627 72.5145 94.0011 71.9583 91.3081 70.8459C88.63 69.7335 86.5368 68.0868 85.0293 65.9064C83.5364 63.711 82.7534 60.9959 82.6802 57.7613H91.8792C91.9814 59.2687 92.4134 60.5274 93.1744 61.5372C93.95 62.5325 94.9818 63.2864 96.27 63.7986C97.5723 64.2963 99.0432 64.5451 100.683 64.5451C102.292 64.5451 103.69 64.3108 104.876 63.8427C106.076 63.3741 107.006 62.7228 107.664 61.8886C108.323 61.0545 108.652 60.0958 108.652 59.0128C108.652 58.0026 108.352 57.1539 107.752 56.466C107.166 55.7781 106.303 55.1928 105.161 54.7097C104.034 54.2266 102.651 53.7876 101.012 53.3925L96.1163 52.1629C92.3254 51.2408 89.3324 49.7993 87.137 47.8382C84.9416 45.8767 83.8512 43.2352 83.8658 39.9125C83.8512 37.1903 84.5757 34.812 86.0392 32.7775C87.5175 30.7431 89.5447 29.1551 92.1206 28.0135C94.6965 26.8719 97.6238 26.3011 100.902 26.3011C104.239 26.3011 107.152 26.8719 109.64 28.0135C112.143 29.1551 114.089 30.7431 115.48 32.7775C116.87 34.812 117.587 37.1683 117.631 39.8468H108.52ZM140.451 72.5365C136.982 72.5365 133.996 71.8337 131.493 70.4288C129.005 69.009 127.088 67.0039 125.741 64.4134C124.395 61.8081 123.721 58.7271 123.721 55.1708C123.721 51.7019 124.395 48.6578 125.741 46.0379C127.088 43.418 128.983 41.3763 131.427 39.9125C133.886 38.449 136.769 37.7171 140.077 37.7171C142.302 37.7171 144.373 38.0759 146.29 38.7929C148.222 39.4954 149.905 40.5567 151.339 41.9761C152.789 43.396 153.916 45.1817 154.72 47.3331C155.525 49.4699 155.928 51.9727 155.928 54.8414V57.4099H127.454V51.6142H147.124C147.124 50.2675 146.832 49.0749 146.246 48.0355C145.661 46.9966 144.848 46.1841 143.81 45.5988C142.785 44.9986 141.592 44.6986 140.231 44.6986C138.811 44.6986 137.552 45.028 136.455 45.6865C135.372 46.3304 134.523 47.2014 133.908 48.2989C133.293 49.3822 132.979 50.5894 132.964 51.9216V57.4319C132.964 59.1005 133.271 60.542 133.886 61.757C134.515 62.9716 135.401 63.9083 136.543 64.5671C137.684 65.2256 139.038 65.555 140.604 65.555C141.643 65.555 142.595 65.4087 143.458 65.1159C144.322 64.823 145.061 64.384 145.675 63.7986C146.29 63.2133 146.758 62.496 147.08 61.6473L155.731 62.218C155.292 64.2963 154.391 66.1112 153.03 67.6627C151.683 69.1993 149.942 70.3994 147.805 71.263C145.683 72.112 143.231 72.5365 140.451 72.5365ZM162.649 71.8777V38.1561H171.717V44.0398H172.068C172.682 41.947 173.714 40.3664 175.163 39.298C176.612 38.2147 178.281 37.6734 180.169 37.6734C180.637 37.6734 181.142 37.7025 181.684 37.7611C182.225 37.8197 182.701 37.9002 183.111 38.0025V46.3012C182.672 46.1696 182.064 46.0524 181.289 45.9498C180.513 45.8476 179.803 45.7961 179.159 45.7961C177.783 45.7961 176.554 46.0964 175.471 46.6963C174.402 47.282 173.553 48.1016 172.924 49.1554C172.309 50.2089 172.002 51.4239 172.002 52.7997V71.8777H162.649ZM221.029 38.1561L209.239 71.8777H198.702L186.912 38.1561H196.792L203.795 62.2837H204.146L211.128 38.1561H221.029ZM226.433 71.8777V38.1561H235.786V71.8777H226.433ZM231.131 33.8094C229.741 33.8094 228.548 33.3483 227.553 32.4263C226.572 31.4896 226.082 30.3699 226.082 29.0673C226.082 27.7793 226.572 26.6743 227.553 25.7522C228.548 24.8155 229.741 24.3472 231.131 24.3472C232.522 24.3472 233.707 24.8155 234.688 25.7522C235.683 26.6743 236.181 27.7793 236.181 29.0673C236.181 30.3699 235.683 31.4896 234.688 32.4263C233.707 33.3483 232.522 33.8094 231.131 33.8094ZM259.132 72.5365C255.722 72.5365 252.772 71.8117 250.284 70.3628C247.811 68.8993 245.901 66.8647 244.554 64.2597C243.208 61.6398 242.534 58.6028 242.534 55.1488C242.534 51.6653 243.208 48.6212 244.554 46.0159C245.901 43.396 247.811 41.3617 250.284 39.9125C252.772 38.449 255.722 37.7171 259.132 37.7171C262.542 37.7171 265.484 38.449 267.957 39.9125C270.445 41.3617 272.363 43.396 273.709 46.0159C275.056 48.6212 275.729 51.6653 275.729 55.1488C275.729 58.6028 275.056 61.6398 273.709 64.2597C272.363 66.8647 270.445 68.8993 267.957 70.3628C265.484 71.8117 262.542 72.5365 259.132 72.5365ZM259.176 65.2916C260.727 65.2916 262.022 64.8525 263.062 63.9743C264.101 63.0816 264.884 61.8666 265.411 60.33C265.952 58.7931 266.223 57.0443 266.223 55.0828C266.223 53.1217 265.952 51.3725 265.411 49.8359C264.884 48.2989 264.101 47.0843 263.062 46.1916C262.022 45.2985 260.727 44.8523 259.176 44.8523C257.61 44.8523 256.292 45.2985 255.224 46.1916C254.17 47.0843 253.372 48.2989 252.831 49.8359C252.304 51.3725 252.041 53.1217 252.041 55.0828C252.041 57.0443 252.304 58.7931 252.831 60.33C253.372 61.8666 254.17 63.0816 255.224 63.9743C256.292 64.8525 257.61 65.2916 259.176 65.2916Z" fill="#FF5D2E"/>
</svg>
