<svg width="173" height="64" viewBox="0 0 173 64" fill="none" xmlns="http://www.w3.org/2000/svg">
<path d="M27.1264 27.5114C27.7051 27.4806 28.3741 27.495 28.9593 27.4945L31.9515 27.4932C32.7859 27.4931 33.6221 27.4905 34.4566 27.4974C34.6267 27.51 34.8196 27.4984 34.985 27.5467C36.246 27.9151 36.1012 29.085 36.0965 30.0564L36.0891 32.0412L36.094 34.8402C36.0965 35.8088 36.3144 37.1664 35.1516 37.6017C34.7094 37.7672 34.019 37.7062 33.5312 37.7041L30.5636 37.7023C29.8907 37.7012 28.9525 37.6677 28.3095 37.7843C27.7404 37.888 27.1955 38.0969 26.7031 38.4007C25.2096 39.3251 24.4162 40.9227 24.5178 42.6503C24.5831 43.7594 24.7835 44.4058 24.505 45.5441C24.1488 47.003 23.3158 48.1203 22.0453 48.9107C21.715 49.1114 21.3634 49.2751 20.9968 49.3977C19.6278 49.8583 18.1314 49.751 16.8421 49.1C15.5451 48.4373 14.57 47.2797 14.1373 45.8889C13.7141 44.5131 13.8606 43.0254 14.5439 41.7583C15.4967 39.984 17.3625 38.892 19.3765 38.9298C20.6459 38.9558 21.2783 39.2895 22.6563 38.861C24.3153 38.3369 25.5381 36.924 25.8187 35.2074C25.9157 34.5921 25.8825 33.514 25.8822 32.8416L25.88 29.9276C25.8797 28.7667 25.7706 27.9007 27.1264 27.5114Z" fill="#FF5D2E"/>
<path d="M29.4663 14.364C30.9416 14.1541 32.6493 14.8648 33.6927 15.8911C34.7147 16.8943 35.2924 18.2645 35.2978 19.6964C35.307 21.1378 34.7322 22.5216 33.7045 23.5325C32.4022 24.8309 30.6909 25.2815 28.8986 25.0178C27.3168 24.785 25.7848 25.1579 24.6469 26.3224C24.0796 26.9002 23.6734 27.6166 23.4691 28.4003C23.2466 29.2643 23.3078 30.6058 23.3093 31.5417L23.3153 34.5446C23.3215 35.1618 23.3361 35.6399 22.8559 36.1072C22.4985 36.4784 22.0003 36.5358 21.5082 36.5322C20.6799 36.5254 19.847 36.5247 19.0166 36.5265L15.8672 36.5254C15.408 36.5254 14.8102 36.5739 14.3712 36.5058C12.8495 36.2695 13.0999 34.652 13.1009 33.5903L13.1059 30.6543C13.1085 30.0535 13.1073 29.4526 13.1021 28.8519C13.0999 28.6199 13.0986 28.3779 13.0968 28.1471C13.0809 26.1349 14.4666 26.3087 15.9299 26.3122L18.7175 26.3189C19.2482 26.3202 19.8568 26.3348 20.3799 26.3015C21.6291 26.2221 22.7887 25.6276 23.5981 24.6746C24.4169 23.7106 24.7429 22.5917 24.6801 21.3379C24.6605 20.945 24.6016 20.5498 24.5696 20.1561C24.4462 18.7225 24.9076 17.2999 25.8494 16.2118C26.7655 15.1448 28.0646 14.481 29.4663 14.364Z" fill="#FF5D2E"/>
<path d="M53.8664 45.3568C52.333 45.3568 50.9293 45.1681 49.6553 44.7906C48.405 44.4131 47.2844 43.8587 46.2936 43.1274C45.3263 42.3961 44.4534 41.5114 43.6749 40.4734L47.0013 36.6869C48.1573 38.2912 49.3015 39.3882 50.4339 39.9779C51.5898 40.5441 52.8402 40.8272 54.1849 40.8272C54.9162 40.8272 55.565 40.7329 56.1312 40.5441C56.721 40.3318 57.181 40.0369 57.5113 39.6595C57.8416 39.282 58.0067 38.8338 58.0067 38.3147C58.0067 37.9373 57.9241 37.5952 57.759 37.2885C57.5939 36.9582 57.358 36.6751 57.0513 36.4392C56.7446 36.1797 56.3789 35.9556 55.9543 35.7669C55.5296 35.5545 55.0578 35.3776 54.5388 35.2361C54.0198 35.0709 53.4536 34.9412 52.8402 34.8468C51.5191 34.5401 50.3631 34.1744 49.3722 33.7498C48.3814 33.3016 47.5557 32.759 46.8951 32.122C46.2346 31.4614 45.7392 30.7183 45.4089 29.8926C45.1022 29.0669 44.9488 28.135 44.9488 27.097C44.9488 26.0354 45.1848 25.0563 45.6566 24.1599C46.1284 23.2398 46.7772 22.4495 47.6029 21.7889C48.4522 21.1284 49.4194 20.6211 50.5046 20.2673C51.6134 19.9134 52.7812 19.7365 54.008 19.7365C55.5178 19.7365 56.8389 19.9134 57.9713 20.2673C59.1037 20.5975 60.0828 21.0812 60.9085 21.7181C61.7578 22.3551 62.4655 23.1336 63.0317 24.0537L59.6699 27.3093C59.1745 26.6488 58.6319 26.0944 58.0421 25.6461C57.4759 25.1979 56.8507 24.8676 56.1666 24.6553C55.506 24.4194 54.8219 24.3014 54.1141 24.3014C53.3356 24.3014 52.6632 24.4076 52.0971 24.6199C51.5309 24.8086 51.0826 25.0917 50.7523 25.4692C50.4457 25.8467 50.2923 26.3067 50.2923 26.8493C50.2923 27.2739 50.3985 27.6514 50.6108 27.9817C50.8231 28.312 51.1298 28.6069 51.5309 28.8664C51.9319 29.1023 52.4155 29.3146 52.9817 29.5033C53.5479 29.6921 54.1731 29.8572 54.8573 29.9988C56.1548 30.2583 57.3226 30.6003 58.3606 31.025C59.3986 31.4496 60.2833 31.9686 61.0146 32.582C61.7696 33.1718 62.3476 33.8795 62.7486 34.7053C63.1497 35.5074 63.3502 36.4156 63.3502 37.4301C63.3502 39.1051 62.9491 40.5323 62.147 41.7119C61.3449 42.8915 60.2361 43.7998 58.8206 44.4367C57.4051 45.0501 55.7537 45.3568 53.8664 45.3568ZM76.6862 45.3568C74.6573 45.3568 72.888 44.944 71.3781 44.1182C69.8683 43.2925 68.6887 42.1602 67.8394 40.7211C66.9901 39.282 66.5654 37.6306 66.5654 35.7669C66.5654 34.3278 66.8014 33.0067 67.2732 31.8035C67.745 30.6003 68.4056 29.5623 69.2549 28.6894C70.1042 27.7929 71.1068 27.1088 72.2628 26.637C73.4424 26.1415 74.7163 25.8938 76.0846 25.8938C77.3585 25.8938 78.5381 26.1297 79.6233 26.6016C80.7085 27.0498 81.6404 27.6986 82.4189 28.5479C83.221 29.3736 83.8344 30.3526 84.2591 31.485C84.6837 32.6174 84.8724 33.856 84.8252 35.2007L84.7899 36.7577H69.7503L68.9364 33.679H80.6496L80.0834 34.316V33.5375C80.0362 32.9005 79.8239 32.3225 79.4464 31.8035C79.0925 31.2845 78.6325 30.8834 78.0663 30.6003C77.5001 30.3172 76.8631 30.1757 76.1554 30.1757C75.1174 30.1757 74.2327 30.3762 73.5013 30.7773C72.7936 31.1783 72.251 31.7681 71.8735 32.5466C71.4961 33.3251 71.3073 34.2688 71.3073 35.3776C71.3073 36.51 71.5432 37.489 72.0151 38.3147C72.5105 39.1404 73.1947 39.7892 74.0675 40.261C74.964 40.7093 76.0138 40.9334 77.217 40.9334C78.0427 40.9334 78.7976 40.8036 79.4818 40.5441C80.1659 40.2846 80.8973 39.8364 81.6758 39.1994L84.0821 42.5612C83.398 43.1746 82.643 43.6936 81.8173 44.1182C80.9916 44.5193 80.1423 44.826 79.2695 45.0383C78.3966 45.2506 77.5355 45.3568 76.6862 45.3568ZM88.8926 45.0029V26.2831H93.7406L93.9175 32.2989L93.0683 31.0604C93.3514 30.0931 93.8114 29.2202 94.4484 28.4417C95.0853 27.6396 95.8285 27.0144 96.6778 26.5662C97.5506 26.118 98.4589 25.8938 99.4026 25.8938C99.8036 25.8938 100.193 25.9292 100.57 26C100.948 26.0708 101.266 26.1533 101.526 26.2477L100.181 31.7681C99.898 31.6266 99.5559 31.5086 99.1549 31.4142C98.7538 31.2963 98.341 31.2373 97.9163 31.2373C97.3501 31.2373 96.8193 31.3435 96.3239 31.5558C95.8521 31.7445 95.4392 32.0276 95.0853 32.4051C94.7315 32.759 94.4484 33.1836 94.236 33.679C94.0473 34.1744 93.9529 34.717 93.9529 35.3068V45.0029H88.8926ZM112.4 45.0029L104.544 26.2831H110.064L115.054 40.261L113.886 40.4734L119.123 26.2831H124.502L116.257 45.0029H112.4ZM128.35 45.0029V26.2831H133.375V45.0029H128.35ZM130.827 22.4259C129.859 22.4259 129.105 22.19 128.562 21.7181C128.019 21.2463 127.748 20.574 127.748 19.7011C127.748 18.899 128.019 18.2502 128.562 17.7548C129.128 17.2358 129.883 16.9763 130.827 16.9763C131.794 16.9763 132.549 17.224 133.091 17.7194C133.634 18.1912 133.905 18.8518 133.905 19.7011C133.905 20.5268 133.622 21.1873 133.056 21.6828C132.513 22.1782 131.77 22.4259 130.827 22.4259ZM147.801 45.3568C145.89 45.3568 144.179 44.944 142.67 44.1182C141.183 43.269 140.004 42.113 139.131 40.6503C138.282 39.1876 137.857 37.5126 137.857 35.6253C137.857 33.738 138.282 32.0748 139.131 30.6357C140.004 29.173 141.183 28.0171 142.67 27.1678C144.179 26.3185 145.89 25.8938 147.801 25.8938C149.688 25.8938 151.375 26.3185 152.861 27.1678C154.371 28.0171 155.55 29.173 156.4 30.6357C157.249 32.0748 157.674 33.738 157.674 35.6253C157.674 37.5126 157.249 39.1876 156.4 40.6503C155.55 42.113 154.371 43.269 152.861 44.1182C151.375 44.944 149.688 45.3568 147.801 45.3568ZM147.801 40.9688C148.721 40.9688 149.546 40.7447 150.278 40.2964C151.009 39.8246 151.575 39.1876 151.976 38.3855C152.401 37.5598 152.613 36.6398 152.613 35.6253C152.613 34.5873 152.401 33.6672 151.976 32.8651C151.575 32.0394 151.009 31.4024 150.278 30.9542C149.546 30.4824 148.721 30.2465 147.801 30.2465C146.857 30.2465 146.02 30.4824 145.288 30.9542C144.557 31.426 143.979 32.063 143.554 32.8651C143.13 33.6672 142.929 34.5873 142.953 35.6253C142.929 36.6398 143.13 37.5598 143.554 38.3855C143.979 39.1876 144.557 39.8246 145.288 40.2964C146.02 40.7447 146.857 40.9688 147.801 40.9688Z" fill="#FF5D2E"/>
</svg>
