<svg width="114" height="174" viewBox="0 0 114 174" fill="none" xmlns="http://www.w3.org/2000/svg">
<path d="M69.11 64.8912C71.9586 64.7398 75.2512 64.8105 78.1313 64.808L92.8586 64.8017C96.9656 64.8014 101.081 64.7886 105.188 64.8223C106.026 64.8844 106.975 64.8273 107.789 65.0651C113.996 66.8782 113.283 72.6363 113.26 77.4174L113.223 87.1864L113.248 100.963C113.26 105.73 114.333 112.412 108.609 114.555C106.433 115.369 103.035 115.069 100.634 115.058L86.0276 115.05C82.7157 115.044 78.098 114.879 74.9335 115.453C72.1323 115.964 69.4505 116.992 67.0267 118.487C59.6762 123.037 55.771 130.9 56.2713 139.403C56.5924 144.862 57.5788 148.043 56.2081 153.646C54.4547 160.826 50.3549 166.326 44.1016 170.216C42.4761 171.204 40.7452 172.009 38.941 172.613C32.203 174.88 24.838 174.352 18.4924 171.148C12.1084 167.886 7.3094 162.188 5.17956 155.343C3.09675 148.572 3.81759 141.249 7.18076 135.013C11.8705 126.28 21.0536 120.905 30.966 121.091C37.2139 121.219 40.3265 122.862 47.1088 120.752C55.2743 118.173 61.2927 111.219 62.6739 102.77C63.1513 99.7414 62.9881 94.4352 62.9864 91.1258L62.9758 76.7836C62.9741 71.0697 62.437 66.8072 69.11 64.8912Z" fill="#FF5D2E"/>
<path d="M80.6271 0.18142C87.8881 -0.851931 96.2934 2.64609 101.429 7.69739C106.459 12.6353 109.302 19.3794 109.329 26.4267C109.374 33.5212 106.545 40.3319 101.487 45.3078C95.0771 51.6982 86.6542 53.9162 77.833 52.6182C70.0472 51.4724 62.5072 53.3075 56.9066 59.0392C54.1142 61.8831 52.1148 65.4092 51.1094 69.2661C50.0144 73.5188 50.3158 80.1214 50.3228 84.7281L50.3526 99.508C50.3828 102.545 50.4548 104.899 48.0913 107.199C46.3322 109.026 43.8801 109.308 41.458 109.291C37.3815 109.257 33.2819 109.254 29.1949 109.262L13.6937 109.257C11.4336 109.257 8.49148 109.496 6.33075 109.161C-1.15889 107.997 0.073551 100.036 0.0782898 94.8107L0.102864 80.3603C0.115852 77.403 0.109706 74.4458 0.0842566 71.4888C0.0733749 70.3472 0.0670587 69.1559 0.0581076 68.0202C-0.0199954 58.1161 6.80043 58.9719 14.0024 58.9889L27.7227 59.0219C30.3347 59.0285 33.3302 59.1001 35.905 58.9364C42.0532 58.5455 47.7605 55.6195 51.7443 50.929C55.7745 46.1842 57.3787 40.6769 57.0698 34.5061C56.9733 32.572 56.6837 30.6271 56.5257 28.6894C55.9185 21.6331 58.1896 14.6313 62.8249 9.2761C67.3338 4.02425 73.7277 0.757317 80.6271 0.18142Z" fill="#FF5D2E"/>
</svg>
